<svg width="1200" height="800" xmlns="http://www.w3.org/2000/svg">
  <!-- Background -->
  <rect width="100%" height="100%" fill="#f4f4f4" />

  <!-- Header -->
  <rect x="0" y="0" width="100%" height="60" fill="#232f3e" />
  <text x="20" y="40" font-family="Arial" font-size="28" fill="#ffffff">AMAZON</text>
  <rect x="950" y="15" width="200" height="30" fill="#f0c14b" />
  <text x="960" y="35" font-family="Arial" font-size="16" fill="#111">Search products...</text>

  <!-- Cart and User Menu -->
  <text x="1160" y="35" font-family="Arial" font-size="18" fill="#ffffff">Cart</text>
  <text x="1050" y="35" font-family="Arial" font-size="18" fill="#ffffff">Ankit Sharma</text>
  <text x="940" y="35" font-family="Arial" font-size="18" fill="#ffffff">Admin</text>

  <!-- Featured Products Title -->
  <text x="20" y="100" font-family="Arial" font-size="36" fill="#000">Featured Products</text>

  <!-- Product Card 1 -->
  <rect x="20" y="150" width="350" height="550" fill="#ffffff" stroke="#ddd" stroke-width="1"/>
  <rect x="40" y="180" width="310" height="350" fill="#d8d8d8" />
  <text x="40" y="540" font-family="Arial" font-size="18" fill="#0000ee">Sample Product 1</text>
  <text x="40" y="570" font-family="Arial" font-size="16" fill="#000">0 reviews</text>
  <text x="40" y="590" font-family="Arial" font-size="24" fill="#000">$0</text>
  <rect x="40" y="630" width="120" height="40" fill="#00aced" />
  <text x="60" y="655" font-family="Arial" font-size="18" fill="#fff">Out of stock</text>

  <!-- Product Card 2 -->
  <rect x="400" y="150" width="350" height="550" fill="#ffffff" stroke="#ddd" stroke-width="1"/>
  <rect x="420" y="180" width="310" height="350" fill="#d8d8d8" />
  <text x="420" y="540" font-family="Arial" font-size="18" fill="#0000ee">Sample Product 2</text>
  <text x="420" y="570" font-family="Arial" font-size="16" fill="#000">0 reviews</text>
  <text x="420" y="590" font-family="Arial" font-size="24" fill="#000">$0</text>
  <rect x="420" y="630" width="120" height="40" fill="#00aced" />
  <text x="440" y="655" font-family="Arial" font-size="18" fill="#fff">Out of stock</text>

  <!-- Product Card 3 -->
  <rect x="780" y="150" width="350" height="550" fill="#ffffff" stroke="#ddd" stroke-width="1"/>
  <rect x="800" y="180" width="310" height="350" fill="#d8d8d8" />
  <text x="800" y="540" font-family="Arial" font-size="18" fill="#0000ee">Sample Product 3</text>
  <text x="800" y="570" font-family="Arial" font-size="16" fill="#000">0 reviews</text>
  <text x="800" y="590" font-family="Arial" font-size="24" fill="#000">$0</text>
  <rect x="800" y="630" width="120" height="40" fill="#f0c14b" />
  <text x="820" y="655" font-family="Arial" font-size="18" fill="#000">Add to cart</text>

  <!-- Footer -->
  <rect x="0" y="760" width="1200" height="40" fill="#232f3e" />
  <text x="20" y="785" font-family="Arial" font-size="18" fill="#ffffff">All rights reserved</text>
</svg>
